REM GENRE "Heavy Metal"
REM DATE 2006
REM DISCID 7509D20B
REM COMMENT "ExactAudioCopy v0.95b4"
PERFORMER "Tierra Santa"
TITLE "Mejor Morir En Pie"
FILE "Tierra Santa - Mejor Morir En Pie.ape" WAVE
  TRACK 01 AUDIO
    TITLE "Mejor morir en pie"
    PERFORMER "Tierra Santa"
    FLAGS DCP
    INDEX 01 00:00:00
  TRACK 02 AUDIO
    TITLE "Un grito en el aire"
    PERFORMER "Tierra Santa"
    FLAGS DCP
    INDEX 01 03:48:45
  TRACK 03 AUDIO
    TITLE "Magia"
    PERFORMER "Tierra Santa"
    FLAGS DCP
    INDEX 00 07:26:22
    INDEX 01 07:28:22
  TRACK 04 AUDIO
    TITLE "La impureza de la amistad"
    PERFORMER "Tierra Santa"
    FLAGS DCP
    INDEX 00 11:37:05
    INDEX 01 11:39:05
  TRACK 05 AUDIO
    TITLE "Otelo"
    PERFORMER "Tierra Santa"
    FLAGS DCP
    INDEX 00 15:20:03
    INDEX 01 15:22:03
  TRACK 06 AUDIO
    TITLE "Si tu alma has de vender"
    PERFORMER "Tierra Santa"
    FLAGS DCP
    INDEX 00 19:07:43
    INDEX 01 19:09:43
  TRACK 07 AUDIO
    TITLE "Hoy vivo por tí"
    PERFORMER "Tierra Santa"
    FLAGS DCP
    INDEX 00 22:57:01
    INDEX 01 22:59:01
  TRACK 08 AUDIO
    TITLE "Una luz en la oscuridad"
    PERFORMER "Tierra Santa"
    FLAGS DCP
    INDEX 00 27:02:48
    INDEX 01 27:04:48
  TRACK 09 AUDIO
    TITLE "La tentación"
    PERFORMER "Tierra Santa"
    FLAGS DCP
    INDEX 00 30:01:42
    INDEX 01 30:03:42
  TRACK 10 AUDIO
    TITLE "Nunca te alejes de mí"
    PERFORMER "Tierra Santa"
    FLAGS DCP
    INDEX 00 34:01:26
    INDEX 01 34:03:26
  TRACK 11 AUDIO
    TITLE "Himno a la alegría"
    PERFORMER "Tierra Santa"
    FLAGS DCP
    INDEX 00 37:34:67
    INDEX 01 37:36:66
